<svg width="36" height="40" viewBox="0 0 36 40" fill="none" xmlns="http://www.w3.org/2000/svg">
<g filter="url(#filter0_d_8_14367)">
<path d="M34.5593 18.5508L19.261 1.53844C18.6168 0.82052 17.3793 0.82052 16.7351 1.53844L1.43682 18.5508C1.21662 18.7951 1.07209 19.0981 1.02079 19.4231C0.969484 19.7481 1.01363 20.081 1.14786 20.3813C1.41983 20.9954 2.02836 21.3901 2.69978 21.3901H6.0994V33.2988C6.0994 33.75 6.27849 34.1827 6.59727 34.5017C6.91604 34.8208 7.34839 35 7.79921 35H12.8986C13.3495 35 13.7818 34.8208 14.1006 34.5017C14.4194 34.1827 14.5985 33.75 14.5985 33.2988V26.4938H21.3977V33.2988C21.3977 33.75 21.5768 34.1827 21.8956 34.5017C22.2143 34.8208 22.6467 35 23.0975 35H28.1969C28.6478 35 29.0801 34.8208 29.3989 34.5017C29.7177 34.1827 29.8967 33.75 29.8967 33.2988V21.3901H33.2964C33.6256 21.3915 33.9481 21.297 34.2245 21.1182C34.501 20.9393 34.7195 20.6838 34.8534 20.3828C34.9873 20.0818 35.0307 19.7483 34.9785 19.423C34.9263 19.0977 34.7807 18.7947 34.5593 18.5508Z" fill="url(#paint0_linear_8_14367)"/>
<path d="M19.6332 1.2045L34.9296 18.2148C34.9298 18.215 34.9301 18.2153 34.9304 18.2156C35.2165 18.5312 35.4047 18.9232 35.4722 19.3438C35.5398 19.7648 35.4835 20.1964 35.3102 20.586C35.1369 20.9756 34.8541 21.3064 34.4961 21.538C34.1384 21.7694 33.7212 21.8918 33.2952 21.8901M19.6332 1.2045L33.2964 21.3901M19.6332 1.2045C18.7903 0.265166 17.2059 0.265166 16.363 1.2045L1.06543 18.216L19.6332 1.2045ZM33.2952 21.8901C33.2949 21.8901 33.2945 21.8901 33.2942 21.8901L33.2964 21.3901M33.2952 21.8901H33.2964V21.3901M33.2952 21.8901H30.3967M33.2964 21.3901H30.3967V21.8901M30.3967 21.8901H29.8967V33.2988C29.8967 33.75 29.7177 34.1827 29.3989 34.5017C29.0801 34.8208 28.6478 35 28.1969 35H23.0975C22.6467 35 22.2143 34.8208 21.8956 34.5017C21.5768 34.1827 21.3977 33.75 21.3977 33.2988V26.9938H20.8977M30.3967 21.8901V33.2988C30.3967 33.8824 30.1651 34.4423 29.7526 34.8551C29.3401 35.268 28.7805 35.5 28.1969 35.5H23.0975C22.5139 35.5 21.9544 35.268 21.5419 34.8551C21.1294 34.4423 20.8977 33.8824 20.8977 33.2988V26.9938M20.8977 26.9938V26.4938H15.0985V26.9938M20.8977 26.9938H15.0985M15.0985 26.9938H14.5985V33.2988C14.5985 33.75 14.4194 34.1827 14.1006 34.5017C13.7818 34.8208 13.3495 35 12.8986 35H7.79921C7.34839 35 6.91604 34.8208 6.59727 34.5017C6.27849 34.1827 6.0994 33.75 6.0994 33.2988V21.8901H5.5994M15.0985 26.9938V33.2988C15.0985 33.8824 14.8668 34.4423 14.4543 34.8551C14.0418 35.268 13.4822 35.5 12.8986 35.5H7.79921C7.21565 35.5 6.65608 35.268 6.24357 34.8551C5.83107 34.4423 5.5994 33.8824 5.5994 33.2988V21.8901M5.5994 21.8901V21.3901H2.69978C2.02836 21.3901 1.41983 20.9954 1.14786 20.3813M5.5994 21.8901H2.69978C1.83118 21.8901 1.04302 21.3794 0.690679 20.5838M0.690679 20.5838C0.69091 20.5843 0.691139 20.5848 0.691371 20.5853L1.14786 20.3813M0.690679 20.5838L1.14786 20.3813M0.690679 20.5838C0.517487 20.1954 0.460594 19.7652 0.526901 19.3451C0.593266 18.9247 0.780198 18.5326 1.06504 18.2164L1.14786 20.3813" stroke="black" stroke-linejoin="round"/>
</g>
<defs>
<filter id="filter0_d_8_14367" x="0" y="0" width="36" height="40" filterUnits="userSpaceOnUse" color-interpolation-filters="sRGB">
<feFlood flood-opacity="0" result="BackgroundImageFix"/>
<feColorMatrix in="SourceAlpha" type="matrix" values="0 0 0 0 0 0 0 0 0 0 0 0 0 0 0 0 0 0 127 0" result="hardAlpha"/>
<feOffset dy="4"/>
<feComposite in2="hardAlpha" operator="out"/>
<feColorMatrix type="matrix" values="0 0 0 0 0.415686 0 0 0 0 0.243137 0 0 0 0 0 0 0 0 1 0"/>
<feBlend mode="normal" in2="BackgroundImageFix" result="effect1_dropShadow_8_14367"/>
<feBlend mode="normal" in="SourceGraphic" in2="effect1_dropShadow_8_14367" result="shape"/>
</filter>
<linearGradient id="paint0_linear_8_14367" x1="18" y1="1" x2="18" y2="35" gradientUnits="userSpaceOnUse">
<stop stop-color="white"/>
<stop offset="1" stop-color="#FFF09D"/>
</linearGradient>
</defs>
</svg>
