<svg width="174" height="129" viewBox="0 0 174 129" fill="none" xmlns="http://www.w3.org/2000/svg">
<g clip-path="url(#clip0_5_560)">
<path d="M165.561 75.6699C140.918 64.0134 122.257 46.1718 110.621 21.1071C110.077 19.9177 108.511 19.6149 107.576 20.5448L63.9233 63.9485C49.938 77.8541 60.987 112.023 63.8145 119.96C64.1843 121.02 65.0325 121.842 66.0983 122.231C74.0588 125.042 108.446 136.05 122.431 122.123L166.105 78.6976C167.04 77.7676 166.736 76.2322 165.561 75.6699Z" fill="#7D5280"/>
<path d="M126.716 60.2288C116.841 50.5403 108.815 38.9487 102.834 25.281L63.9233 63.9485C49.938 77.8542 60.987 112.023 63.8145 119.96C64.0538 120.609 64.467 121.171 64.989 121.582L126.694 60.2288H126.716Z" fill="#9C69A1"/>
<path d="M114.144 62.5861C108.75 67.9494 99.9195 67.8629 94.4168 62.4131C88.914 56.9633 88.8488 48.7237 93.7425 43.3172C93.786 43.2739 93.8513 43.3172 93.8295 43.3604C92.4375 45.9988 93.8295 52.9408 98.8755 57.9581C104.357 63.4079 112.121 64.5541 114.144 62.5644V62.5861Z" fill="#5A2E5C"/>
<path d="M123.975 91.7814C118.646 86.483 118.407 78.0921 123.301 72.6855C123.344 72.6423 123.409 72.6855 123.388 72.7288C121.996 75.3672 123.388 82.3092 128.434 87.3264C133.915 92.7762 141.679 93.9224 143.702 91.9328C138.308 97.2961 129.478 97.2096 123.975 91.7598V91.7814Z" fill="#5A2E5C"/>
<path d="M89.5013 96.6905C79.3005 86.5479 64.5758 84.7529 62.1398 87.175C72.1665 77.2054 88.5443 77.3567 98.745 87.4994C108.946 97.6421 109.098 113.948 99.0713 123.896C101.399 121.582 99.702 106.833 89.5013 96.6905Z" fill="#5A2E5C"/>
<path d="M165.735 79.0652C173.848 81.9415 175.784 73.7884 172.412 72.426C145.073 60.8127 125.585 41.4357 113.905 14.2516C112.295 11.1591 104.531 14.0786 107.228 20.8909C118.907 48.0749 138.395 67.452 165.735 79.0652V79.0652Z" fill="#5A2E5C"/>
<path d="M84.0856 7.30966C58.3771 16.4143 32.4728 16.89 6.43806 7.35291C5.19831 6.89876 3.89331 7.78543 3.89331 9.10463V70.4796C3.89331 90.1378 36.0181 106.53 43.6523 110.142C44.6746 110.618 45.8491 110.618 46.8713 110.142C54.5056 106.53 86.6303 90.1378 86.6303 70.4796V9.06137C86.6303 7.76381 85.3253 6.87713 84.1073 7.30966H84.0856Z" fill="#D14545"/>
<path d="M45.6316 23.7023C31.7551 23.8104 17.8568 21.2369 3.89331 15.7655V70.458C3.89331 90.1162 36.0181 106.509 43.6523 110.12C44.2831 110.423 44.9573 110.51 45.6316 110.445V23.7023Z" fill="#E86861"/>
<path d="M66.1418 34.2126C73.9065 34.2126 80.214 40.3544 80.214 47.9452C80.214 45.1122 73.9065 40.4625 66.1418 40.4625C58.986 40.4625 53.07 44.3985 52.1783 47.2315C52.1783 47.2964 52.0695 47.2748 52.0695 47.2315C52.461 39.9868 58.5945 34.2126 66.12 34.2126H66.1418ZM10.3965 47.2532C10.3965 47.2532 10.2878 47.2964 10.3095 47.2532C10.701 40.0084 16.8345 34.2342 24.36 34.2342C31.8855 34.2342 38.4323 40.376 38.4323 47.9668C38.4323 45.1338 32.1248 40.4842 24.36 40.4842C17.2043 40.4842 11.2883 44.4201 10.3965 47.2532V47.2532ZM45.2618 88.1482C30.8415 88.1482 19.14 76.7296 19.14 62.6293C19.14 66.0463 30.8415 70.5013 45.2618 70.5013C59.682 70.5013 71.3835 65.9165 71.3835 62.6293C71.3835 76.7296 59.682 88.1482 45.2618 88.1482Z" fill="#AD1D44"/>
<path d="M86.6303 9.58039C94.4168 5.90395 89.9798 -1.23268 86.6303 0.194643C59.0513 11.2024 31.4723 11.2024 3.89331 0.173017C0.543807 -0.865038 -2.87094 6.63924 3.89331 9.58039C31.4723 20.5881 59.0513 20.5881 86.6303 9.58039Z" fill="#AD1D44"/>
</g>
<defs>
<clipPath id="clip0_5_560">
<rect width="174" height="129" fill="white"/>
</clipPath>
</defs>
</svg>
