<svg width="137" height="137" viewBox="0 0 137 137" fill="none" xmlns="http://www.w3.org/2000/svg">
<g clip-path="url(#clip0_4_529)">
<path d="M107.416 33.1319H29.5776V111.867H107.416V33.1319Z" fill="#50728C"/>
<path d="M95.6509 33.1319H86.3093V112.057H95.6509V33.1319Z" fill="#62A7B5"/>
<path d="M90.9801 39.3245H86.3093V112.064H90.9801V39.3245Z" fill="#88CBD1"/>
<path d="M122.982 39.4167H107.416V105.779H122.982V39.4167Z" fill="#88CBD1"/>
<path d="M115.199 44.1287H107.416V105.779H115.199V44.1287Z" fill="#BFDBD8"/>
<path d="M104.304 108.728C104.304 110.46 105.699 111.867 107.416 111.867H122.982C124.699 111.867 126.093 110.46 126.093 108.728C126.093 106.995 124.699 105.588 122.982 105.588H107.416C105.699 105.588 104.304 106.995 104.304 108.728Z" fill="#62A7B5"/>
<path d="M125.771 26.6382L72.7536 0.675765C69.9706 -0.221186 67.0293 -0.221186 64.2463 0.675765L11.3634 26.589C9.99318 27.0314 9.13453 28.5795 9.37812 30.1768L9.3903 30.2567C9.64607 31.9155 10.9127 33.1319 12.3986 33.1319H124.382C125.99 33.1319 127.366 31.8172 127.64 30.0171C127.872 28.512 127.062 27.0498 125.771 26.632V26.6382Z" fill="#88CBD1"/>
<path d="M64.2463 0.675785L11.3634 26.5891C9.99318 27.0314 9.13453 28.5795 9.37812 30.1769L9.3903 30.2567C9.64607 31.9155 10.9127 33.1319 12.3986 33.1319H68.4969V0C67.0659 0 65.6348 0.227309 64.2463 0.675785Z" fill="#BFDBD8"/>
<path d="M39.1629 22.6019L66.7797 9.06781C67.3399 8.92651 67.9184 8.85278 68.497 8.85278C69.0755 8.85278 69.654 8.92651 70.2143 9.07395L97.8554 22.6081C98.6227 22.9828 98.3913 24.2914 97.5509 24.2914H39.4674C38.627 24.2914 38.3895 22.9828 39.1629 22.6081V22.6019Z" fill="#50728C"/>
<path d="M68.4969 8.84662C67.9184 8.84662 67.3399 8.92034 66.7796 9.06164L39.1567 22.6019C38.3894 22.9767 38.6208 24.2852 39.4612 24.2852H68.4908V8.84662H68.4969Z" fill="#62A7B5"/>
<path d="M73.1678 33.1319H63.8262V112.057H73.1678V33.1319Z" fill="#62A7B5"/>
<path d="M68.5092 39.3245H63.8262V112.064H68.5092V39.3245Z" fill="#88CBD1"/>
<path d="M122.988 33.1319H107.422C105.705 33.1319 104.31 34.5388 104.31 36.2712C104.31 38.0037 105.705 39.4106 107.422 39.4106H122.988C124.705 39.4106 126.099 38.0037 126.099 36.2712C126.099 34.5388 124.705 33.1319 122.988 33.1319V33.1319Z" fill="#62A7B5"/>
<path d="M12.4534 118.152H124.54C126.258 118.152 127.652 116.745 127.652 115.012C127.652 113.28 126.258 111.873 124.54 111.873H12.4534C10.7361 111.873 9.34155 113.28 9.34155 115.012C9.34155 116.745 10.7361 118.152 12.4534 118.152Z" fill="#BFDBD8"/>
<path d="M12.4534 118.152H124.54C126.258 118.152 127.652 116.745 127.652 115.012C127.652 113.28 126.258 111.873 124.54 111.873H12.4534C10.7361 111.873 9.34155 113.28 9.34155 115.012C9.34155 116.745 10.7361 118.152 12.4534 118.152Z" fill="#88CBD1"/>
<path d="M68.5091 111.873H12.4534C10.7361 111.873 9.34155 113.28 9.34155 115.012C9.34155 116.745 10.7361 118.152 12.4534 118.152H68.5091V111.867V111.873Z" fill="#BFDBD8"/>
<path d="M127.658 118.152H9.34157C7.62428 118.152 6.22974 119.559 6.22974 121.291C6.22974 123.024 7.62428 124.43 9.34157 124.43H127.658C129.376 124.43 130.77 123.024 130.77 121.291C130.77 119.559 129.376 118.152 127.658 118.152Z" fill="#62A7B5"/>
<path d="M68.5091 118.152H9.34157C7.62428 118.152 6.22974 119.559 6.22974 121.291C6.22974 123.024 7.62428 124.43 9.34157 124.43H68.5091V118.146V118.152Z" fill="#88CBD1"/>
<path d="M130.77 124.437H6.22976C4.51246 124.437 3.11792 125.843 3.11792 127.576C3.11792 129.308 4.51246 130.715 6.22976 130.715H130.77C132.488 130.715 133.882 129.308 133.882 127.576C133.882 125.843 132.488 124.437 130.77 124.437Z" fill="#88CBD1"/>
<path d="M68.5091 124.437H6.22976C4.51246 124.437 3.11792 125.843 3.11792 127.576C3.11792 129.308 4.51246 130.715 6.22976 130.715H68.5091V124.43V124.437Z" fill="#BFDBD8"/>
<path d="M133.882 130.715H3.11184C1.39454 130.715 0 132.122 0 133.855C0 135.587 1.39454 136.994 3.11184 136.994H133.882C135.599 136.994 136.994 135.587 136.994 133.855C136.994 132.122 135.599 130.715 133.882 130.715Z" fill="#62A7B5"/>
<path d="M68.5091 130.715H3.11184C1.39454 130.715 0 132.122 0 133.855C0 135.587 1.39454 136.994 3.11184 136.994H68.5091V130.709V130.715Z" fill="#88CBD1"/>
<path d="M29.5776 33.1319H14.0124C12.2951 33.1319 10.9005 34.5388 10.9005 36.2712C10.9005 38.0037 12.2951 39.4106 14.0124 39.4106H29.5776C31.2949 39.4106 32.6895 38.0037 32.6895 36.2712C32.6895 34.5388 31.2949 33.1319 29.5776 33.1319V33.1319Z" fill="#62A7B5"/>
<path d="M10.9005 108.728C10.9005 110.46 12.2951 111.867 14.0124 111.867H29.5776C31.2949 111.867 32.6895 110.46 32.6895 108.728C32.6895 106.995 31.2949 105.588 29.5776 105.588H14.0124C12.2951 105.588 10.9005 106.995 10.9005 108.728V108.728Z" fill="#62A7B5"/>
<path d="M29.5777 39.3245H14.0125V105.687H29.5777V39.3245Z" fill="#88CBD1"/>
<path d="M21.7951 44.0366H14.0125V105.687H21.7951V44.0366Z" fill="#BFDBD8"/>
<path d="M50.6907 33.1319H41.3491V112.057H50.6907V33.1319Z" fill="#62A7B5"/>
<path d="M46.0199 39.3245H41.3491V112.064H46.0199V39.3245Z" fill="#88CBD1"/>
</g>
<defs>
<clipPath id="clip0_4_529">
<rect width="137" height="137" fill="white"/>
</clipPath>
</defs>
</svg>
