<svg width="46" height="45" viewBox="0 0 46 45" fill="none" xmlns="http://www.w3.org/2000/svg">
<g filter="url(#filter0_d_8_14364)">
<path d="M13.8042 32.7208C16.6955 35.667 20.5009 37.5017 24.5721 37.9123C28.6434 38.3228 32.7285 37.2839 36.1316 34.9726C39.5347 32.6612 42.0451 29.2203 43.2352 25.2362C44.4253 21.2521 44.2215 16.9712 42.6584 13.1229C41.0953 9.27457 38.2697 6.09695 34.663 4.13139C31.0562 2.16582 26.8915 1.53392 22.8784 2.34334C18.8653 3.15276 15.252 5.35343 12.6542 8.5704C10.0564 11.7874 8.6348 15.8216 8.63158 19.9858H13.0526C13.0499 16.8624 14.1114 13.8347 16.0561 11.4185C18.0008 9.00239 20.7085 7.34739 23.7177 6.73553C26.7269 6.12368 29.8514 6.59284 32.5588 8.06306C35.2663 9.53328 37.3891 11.9136 38.5655 14.7984C39.742 17.6832 39.8993 20.8939 39.0106 23.8835C38.1219 26.8731 36.2423 29.4566 33.692 31.1936C31.1417 32.9307 28.0785 33.7139 25.0244 33.4098C21.9703 33.1057 19.1144 31.7331 16.9432 29.5258L13.8042 32.7208ZM19.6842 19.9858H2L10.8421 28.9858L19.6842 19.9858Z" fill="url(#paint0_linear_8_14364)"/>
<path d="M13.0905 33.4213C12.7086 33.0322 12.7088 32.4089 13.0909 32.02L16.2298 28.825C16.4178 28.6337 16.6747 28.5259 16.9429 28.5258C17.211 28.5257 17.468 28.6334 17.6561 28.8246C19.6649 30.8667 22.3043 32.134 25.1235 32.4147C27.9426 32.6954 30.7716 31.9728 33.129 30.3671C35.4869 28.7612 37.2282 26.3701 38.0521 23.5986C38.876 20.8268 38.73 17.8498 37.6396 15.176C36.5493 12.5025 34.5836 10.3005 32.0816 8.94185C29.58 7.58341 26.6949 7.15064 23.9169 7.71548C21.1387 8.28037 18.6352 9.80905 16.8351 12.0455C15.2426 14.0241 14.2884 16.4478 14.091 18.9858H19.6842C20.0871 18.9858 20.4506 19.2276 20.6064 19.5991C20.7622 19.9706 20.6799 20.3993 20.3975 20.6867L11.5554 29.6867C11.3674 29.878 11.1104 29.9858 10.8421 29.9858C10.5738 29.9858 10.3168 29.878 10.1288 29.6867L1.28666 20.6867C1.00434 20.3993 0.922012 19.9706 1.07782 19.5991C1.23363 19.2276 1.59715 18.9858 2 18.9858H7.6582C7.87017 14.9518 9.34241 11.0799 11.8762 7.94214C14.6189 4.54576 18.4365 2.2191 22.6807 1.36308C26.9251 0.507015 31.3291 1.17568 35.1415 3.25331C38.9535 5.33073 41.936 8.68691 43.5849 12.7466C45.2337 16.8059 45.4485 21.3205 44.1934 25.5224C42.9382 29.7245 40.2892 33.3575 36.6934 35.7998C33.0973 38.2423 28.778 39.3415 24.4718 38.9072C20.1657 38.4729 16.1439 36.5327 13.0905 33.4213Z" stroke="#6B4004" stroke-width="2" stroke-linejoin="round"/>
</g>
<defs>
<filter id="filter0_d_8_14364" x="0" y="-1.52588e-05" width="46" height="45" filterUnits="userSpaceOnUse" color-interpolation-filters="sRGB">
<feFlood flood-opacity="0" result="BackgroundImageFix"/>
<feColorMatrix in="SourceAlpha" type="matrix" values="0 0 0 0 0 0 0 0 0 0 0 0 0 0 0 0 0 0 127 0" result="hardAlpha"/>
<feOffset dy="5"/>
<feComposite in2="hardAlpha" operator="out"/>
<feColorMatrix type="matrix" values="0 0 0 0 0.411765 0 0 0 0 0.239216 0 0 0 0 0 0 0 0 1 0"/>
<feBlend mode="normal" in2="BackgroundImageFix" result="effect1_dropShadow_8_14364"/>
<feBlend mode="normal" in="SourceGraphic" in2="effect1_dropShadow_8_14364" result="shape"/>
</filter>
<linearGradient id="paint0_linear_8_14364" x1="23" y1="2" x2="23" y2="38" gradientUnits="userSpaceOnUse">
<stop stop-color="white"/>
<stop offset="1" stop-color="#FFF09D"/>
</linearGradient>
</defs>
</svg>
