<svg width="360" height="789" viewBox="0 0 360 789" fill="none" xmlns="http://www.w3.org/2000/svg">
<g style="mix-blend-mode:screen" opacity="0.26">
<path d="M124.93 77.8938L115.175 67.858" stroke="white" stroke-width="5" stroke-linecap="round" stroke-linejoin="round"/>
<path d="M115.476 78.2307L124.629 67.5211" stroke="white" stroke-width="5" stroke-linecap="round" stroke-linejoin="round"/>
<path d="M136.143 231.899L126.382 221.856" stroke="white" stroke-width="5" stroke-linecap="round" stroke-linejoin="round"/>
<path d="M126.689 232.229L135.836 221.526" stroke="white" stroke-width="5" stroke-linecap="round" stroke-linejoin="round"/>
<path d="M17.4304 317.941L7.67578 307.898" stroke="white" stroke-width="5" stroke-linecap="round" stroke-linejoin="round"/>
<path d="M7.97644 318.271L17.1234 307.568" stroke="white" stroke-width="5" stroke-linecap="round" stroke-linejoin="round"/>
<path d="M13.1704 63.2401L3.41577 53.2042" stroke="white" stroke-width="5" stroke-linecap="round" stroke-linejoin="round"/>
<path d="M3.71643 63.577L12.8634 52.8744" stroke="white" stroke-width="5" stroke-linecap="round" stroke-linejoin="round"/>
<path d="M245.03 132.235L235.275 122.199" stroke="white" stroke-width="5" stroke-linecap="round" stroke-linejoin="round"/>
<path d="M235.576 132.572L244.729 121.869" stroke="white" stroke-width="5" stroke-linecap="round" stroke-linejoin="round"/>
<path d="M292.594 251.409L282.839 241.373" stroke="white" stroke-width="5" stroke-linecap="round" stroke-linejoin="round"/>
<path d="M283.14 251.746L292.293 241.044" stroke="white" stroke-width="5" stroke-linecap="round" stroke-linejoin="round"/>
<path d="M285.02 348.491L275.266 338.455" stroke="white" stroke-width="5" stroke-linecap="round" stroke-linejoin="round"/>
<path d="M275.567 348.828L284.713 338.125" stroke="white" stroke-width="5" stroke-linecap="round" stroke-linejoin="round"/>
<path d="M197.427 93.9653L190.711 81.2134L184.014 93.9723L177.317 106.724L190.73 106.71L204.143 106.703L197.427 93.9653Z" stroke="white" stroke-width="5" stroke-linecap="round" stroke-linejoin="round"/>
<path d="M175.219 249.767L168.502 237.022L161.805 249.774L155.108 262.526L168.522 262.519L181.935 262.512L175.219 249.767Z" stroke="white" stroke-width="5" stroke-linecap="round" stroke-linejoin="round"/>
<path d="M252.2 297.609L245.484 284.865L238.787 297.617L232.083 310.375L245.497 310.361L258.916 310.354L252.2 297.609Z" stroke="white" stroke-width="5" stroke-linecap="round" stroke-linejoin="round"/>
<path d="M296.477 199.756L299.944 185.53L286.984 189.355L274.025 193.173L283.517 203.574L293.01 213.982L296.477 199.756Z" stroke="white" stroke-width="5" stroke-linecap="round" stroke-linejoin="round"/>
<path d="M75.843 34.6273L79.3099 20.4016L66.357 24.2265L53.3914 28.0443L62.8901 38.4451L72.3825 48.853L75.843 34.6273Z" stroke="white" stroke-width="5" stroke-linecap="round" stroke-linejoin="round"/>
<path d="M66.6577 341.957L70.1182 327.731L57.1653 331.556L44.2061 335.374L53.6984 345.775L63.1908 356.183L66.6577 341.957Z" stroke="white" stroke-width="5" stroke-linecap="round" stroke-linejoin="round"/>
<path d="M310.069 50.5163L321.685 43.1473L310.063 35.7993L298.434 28.4443L298.447 43.1613L298.453 57.8853L310.069 50.5163Z" stroke="white" stroke-width="5" stroke-linecap="round" stroke-linejoin="round"/>
<path d="M66.3571 197.581L77.9795 190.212L66.3507 182.864L54.7283 175.509L54.7411 190.233L54.7475 204.95L66.3571 197.581Z" stroke="white" stroke-width="5" stroke-linecap="round" stroke-linejoin="round"/>
<path d="M220.103 173.48C220.103 179.649 215.548 184.646 209.926 184.646C204.303 184.646 199.749 179.649 199.749 173.48C199.749 167.311 204.303 162.315 209.926 162.315C215.548 162.315 220.103 167.311 220.103 173.48V173.48Z" stroke="white" stroke-width="5" stroke-linecap="round" stroke-linejoin="round"/>
<path d="M168.675 48.853C168.675 55.0219 164.121 60.0188 158.498 60.0188C152.876 60.0188 148.321 55.0219 148.321 48.853C148.321 42.6841 152.882 37.6872 158.498 37.6872C164.114 37.6872 168.675 42.6841 168.675 48.853Z" stroke="white" stroke-width="5" stroke-linecap="round" stroke-linejoin="round"/>
<path d="M175.168 378.458C175.168 384.627 170.613 389.624 164.991 389.624C159.368 389.624 154.814 384.627 154.814 378.458C154.814 372.289 159.375 367.292 164.991 367.292C170.607 367.292 175.168 372.289 175.168 378.458Z" stroke="white" stroke-width="5" stroke-linecap="round" stroke-linejoin="round"/>
<path d="M202.391 361.762C202.391 355.593 206.952 350.596 212.568 350.596C218.184 350.596 222.744 355.593 222.744 361.762" stroke="white" stroke-width="5" stroke-linecap="round" stroke-linejoin="round"/>
<path d="M121.149 190.233C121.149 184.064 125.71 179.067 131.326 179.067C136.942 179.067 141.503 184.064 141.503 190.233" stroke="white" stroke-width="5" stroke-linecap="round" stroke-linejoin="round"/>
<path d="M14.0594 99.5518C14.0594 93.3829 18.5945 88.386 24.1915 88.386C29.7884 88.386 34.3235 93.3829 34.3235 99.5518" stroke="white" stroke-width="5" stroke-linecap="round" stroke-linejoin="round"/>
<path d="M270.635 117.841C265.012 117.841 260.458 112.865 260.458 106.724C260.458 100.583 265.012 95.6075 270.635 95.6075" stroke="white" stroke-width="5" stroke-linecap="round" stroke-linejoin="round"/>
<path d="M25.5347 378.402C19.9122 378.402 15.3579 373.426 15.3579 367.285C15.3579 361.144 19.9122 356.169 25.5347 356.169" stroke="white" stroke-width="5" stroke-linecap="round" stroke-linejoin="round"/>
<path d="M134.761 23.2229C129.138 23.2229 124.584 18.2471 124.584 12.1062C124.584 5.9654 129.138 0.989563 134.761 0.989563" stroke="white" stroke-width="5" stroke-linecap="round" stroke-linejoin="round"/>
<path d="M30.6263 260.94C30.6263 267.109 26.072 272.106 20.4495 272.106C14.827 272.106 10.2727 267.109 10.2727 260.94C10.2727 254.771 14.8334 249.774 20.4495 249.774C26.0656 249.774 30.6263 254.771 30.6263 260.94V260.94Z" stroke="white" stroke-width="5" stroke-linecap="round" stroke-linejoin="round"/>
<path d="M344.514 273.699C344.514 279.868 339.96 284.865 334.337 284.865C328.715 284.865 324.161 279.868 324.161 273.699C324.161 267.53 328.715 262.533 334.337 262.533C339.96 262.533 344.514 267.53 344.514 273.699Z" stroke="white" stroke-width="5" stroke-linecap="round" stroke-linejoin="round"/>
<path d="M336.608 95.6146H316.363V117.827H336.608V95.6146Z" stroke="white" stroke-width="5" stroke-linecap="round" stroke-linejoin="round"/>
<path d="M107.678 106.724H87.4333V128.937H107.678V106.724Z" stroke="white" stroke-width="5" stroke-linecap="round" stroke-linejoin="round"/>
<path d="M106.668 248.553H86.4227V270.765H106.668V248.553Z" stroke="white" stroke-width="5" stroke-linecap="round" stroke-linejoin="round"/>
<path d="M336.608 356.183H316.363V378.395H336.608V356.183Z" stroke="white" stroke-width="5" stroke-linecap="round" stroke-linejoin="round"/>
<path d="M252.616 0.996582H232.371V23.2089H252.616V0.996582Z" stroke="white" stroke-width="5" stroke-linecap="round" stroke-linejoin="round"/>
<path d="M203.274 226.881C198.854 226.881 199.615 218.284 193.973 218.284" stroke="white" stroke-width="5" stroke-linecap="round" stroke-linejoin="round"/>
<path d="M221.868 226.881C217.448 226.881 218.209 218.284 212.568 218.284" stroke="white" stroke-width="5" stroke-linecap="round" stroke-linejoin="round"/>
<path d="M203.274 226.881C207.694 226.881 206.932 218.284 212.574 218.284" stroke="white" stroke-width="5" stroke-linecap="round" stroke-linejoin="round"/>
<path d="M221.868 226.881C226.288 226.881 225.527 218.284 231.169 218.284" stroke="white" stroke-width="5" stroke-linecap="round" stroke-linejoin="round"/>
<path d="M256.249 387.055C251.829 387.055 252.59 378.451 246.949 378.451" stroke="white" stroke-width="5" stroke-linecap="round" stroke-linejoin="round"/>
<path d="M274.844 387.055C270.424 387.055 271.185 378.458 265.543 378.458" stroke="white" stroke-width="5" stroke-linecap="round" stroke-linejoin="round"/>
<path d="M256.249 387.055C260.669 387.055 259.908 378.458 265.55 378.458" stroke="white" stroke-width="5" stroke-linecap="round" stroke-linejoin="round"/>
<path d="M274.844 387.055C279.264 387.055 278.503 378.451 284.144 378.458" stroke="white" stroke-width="5" stroke-linecap="round" stroke-linejoin="round"/>
<path d="M281.605 156.132C277.185 156.132 277.946 147.534 272.304 147.534" stroke="white" stroke-width="5" stroke-linecap="round" stroke-linejoin="round"/>
<path d="M300.206 156.132C295.786 156.132 296.547 147.534 290.905 147.534" stroke="white" stroke-width="5" stroke-linecap="round" stroke-linejoin="round"/>
<path d="M281.605 156.132C286.025 156.132 285.264 147.534 290.905 147.534" stroke="white" stroke-width="5" stroke-linecap="round" stroke-linejoin="round"/>
<path d="M300.206 156.132C304.626 156.132 303.865 147.534 309.506 147.534" stroke="white" stroke-width="5" stroke-linecap="round" stroke-linejoin="round"/>
<path d="M23.0081 145.738C18.5882 145.738 19.3493 137.141 13.7076 137.141" stroke="white" stroke-width="5" stroke-linecap="round" stroke-linejoin="round"/>
<path d="M41.6026 145.738C37.1826 145.738 37.9438 137.141 32.3021 137.141" stroke="white" stroke-width="5" stroke-linecap="round" stroke-linejoin="round"/>
<path d="M23.0081 145.738C27.428 145.738 26.6668 137.141 32.3085 137.141" stroke="white" stroke-width="5" stroke-linecap="round" stroke-linejoin="round"/>
<path d="M41.6027 145.738C46.0226 145.738 45.2614 137.141 50.9031 137.141" stroke="white" stroke-width="5" stroke-linecap="round" stroke-linejoin="round"/>
<path d="M204.815 30.606C204.815 35.4555 196.979 34.6203 196.979 40.8103" stroke="white" stroke-width="5" stroke-linecap="round" stroke-linejoin="round"/>
<path d="M204.815 10.2043C204.815 15.0538 196.979 14.2186 196.979 20.4086" stroke="white" stroke-width="5" stroke-linecap="round" stroke-linejoin="round"/>
<path d="M204.815 30.6059C204.815 25.7564 196.979 26.5916 196.979 20.4016" stroke="white" stroke-width="5" stroke-linecap="round" stroke-linejoin="round"/>
<path d="M204.815 10.2043C204.815 5.35481 196.979 6.18996 196.979 0" stroke="white" stroke-width="5" stroke-linecap="round" stroke-linejoin="round"/>
<path d="M147.797 137.33C147.797 142.18 139.961 141.344 139.961 147.534" stroke="white" stroke-width="5" stroke-linecap="round" stroke-linejoin="round"/>
<path d="M147.797 116.929C147.797 121.778 139.961 120.943 139.961 127.133" stroke="white" stroke-width="5" stroke-linecap="round" stroke-linejoin="round"/>
<path d="M147.797 137.33C147.797 132.481 139.961 133.316 139.961 127.126" stroke="white" stroke-width="5" stroke-linecap="round" stroke-linejoin="round"/>
<path d="M147.797 116.929C147.797 112.079 139.961 112.914 139.961 106.724" stroke="white" stroke-width="5" stroke-linecap="round" stroke-linejoin="round"/>
<path d="M302.355 307.821C302.355 312.67 294.519 311.835 294.519 318.025" stroke="white" stroke-width="5" stroke-linecap="round" stroke-linejoin="round"/>
<path d="M302.355 287.419C302.355 292.269 294.519 291.434 294.519 297.624" stroke="white" stroke-width="5" stroke-linecap="round" stroke-linejoin="round"/>
<path d="M302.355 307.821C302.355 302.971 294.519 303.806 294.519 297.617" stroke="white" stroke-width="5" stroke-linecap="round" stroke-linejoin="round"/>
<path d="M302.355 287.419C302.355 282.57 294.519 283.405 294.519 277.215" stroke="white" stroke-width="5" stroke-linecap="round" stroke-linejoin="round"/>
<path d="M110.589 323.899C110.589 328.749 102.753 327.914 102.753 334.104" stroke="white" stroke-width="5" stroke-linecap="round" stroke-linejoin="round"/>
<path d="M110.589 303.498C110.589 308.347 102.753 307.512 102.753 313.702" stroke="white" stroke-width="5" stroke-linecap="round" stroke-linejoin="round"/>
<path d="M110.589 323.899C110.589 319.05 102.753 319.885 102.753 313.695" stroke="white" stroke-width="5" stroke-linecap="round" stroke-linejoin="round"/>
<path d="M110.589 303.498C110.589 298.648 102.753 299.483 102.753 293.293" stroke="white" stroke-width="5" stroke-linecap="round" stroke-linejoin="round"/>
<path d="M225.559 249.774H248.503" stroke="white" stroke-width="5" stroke-linecap="round" stroke-linejoin="round"/>
<path d="M0 177.032H22.9442" stroke="white" stroke-width="5" stroke-linecap="round" stroke-linejoin="round"/>
<path d="M227.273 60.0188H250.217" stroke="white" stroke-width="5" stroke-linecap="round" stroke-linejoin="round"/>
<path d="M317.713 3.20728H340.657" stroke="white" stroke-width="5" stroke-linecap="round" stroke-linejoin="round"/>
<path d="M91.4696 378.402H114.414" stroke="white" stroke-width="5" stroke-linecap="round" stroke-linejoin="round"/>
<path d="M150.381 329.773L166.603 311.969" stroke="white" stroke-width="5" stroke-linecap="round" stroke-linejoin="round"/>
<path d="M16.0807 21.0052L32.3085 3.20728" stroke="white" stroke-width="5" stroke-linecap="round" stroke-linejoin="round"/>
<path d="M329.182 203.483L345.403 185.685" stroke="white" stroke-width="5" stroke-linecap="round" stroke-linejoin="round"/>
<g opacity="0.3">
<path d="M212.024 103.342L205.308 90.5897L198.611 103.342L191.907 116.1L205.321 116.086L218.74 116.079L212.024 103.342Z" stroke="white" stroke-miterlimit="10"/>
<path d="M189.815 259.143L183.099 246.391L176.402 259.15L169.698 271.902L183.112 271.888H196.532L189.815 259.143Z" stroke="white" stroke-miterlimit="10"/>
<path d="M266.797 306.986L260.081 294.241L253.384 306.993L246.68 319.752L260.093 319.738L273.513 319.731L266.797 306.986Z" stroke="white" stroke-miterlimit="10"/>
<path d="M311.067 209.132L314.534 194.907L301.581 198.732L288.622 202.549L298.114 212.95L307.606 223.358L311.067 209.132Z" stroke="white" stroke-miterlimit="10"/>
<path d="M90.4398 44.0035L93.9003 29.7778L80.9474 33.6027L67.9882 37.4205L77.4805 47.8214L86.9729 58.2222L90.4398 44.0035Z" stroke="white" stroke-miterlimit="10"/>
<path d="M81.2481 351.333L84.715 337.107L71.7621 340.932L58.8029 344.75L68.2952 355.151L77.7876 365.559L81.2481 351.333Z" stroke="white" stroke-miterlimit="10"/>
<path d="M324.666 59.8925L336.282 52.5235L324.66 45.1755L313.031 37.8206L313.044 52.5375L313.05 67.2615L324.666 59.8925Z" stroke="white" stroke-miterlimit="10"/>
<path d="M80.9538 206.957L92.5698 199.588L80.9474 192.24L69.3186 184.885L69.3314 199.602L69.3378 214.326L80.9538 206.957Z" stroke="white" stroke-miterlimit="10"/>
<path d="M234.7 182.857C234.7 189.025 230.145 194.022 224.523 194.022C218.9 194.022 214.346 189.025 214.346 182.857C214.346 176.688 218.9 171.691 224.523 171.691C230.145 171.691 234.7 176.688 234.7 182.857Z" stroke="white" stroke-miterlimit="10"/>
<path d="M183.265 58.2222C183.265 64.3911 178.711 69.388 173.089 69.388C167.466 69.388 162.912 64.3911 162.912 58.2222C162.912 52.0533 167.473 47.0564 173.089 47.0564C178.705 47.0564 183.265 52.0533 183.265 58.2222Z" stroke="white" stroke-miterlimit="10"/>
<path d="M189.764 387.834C189.764 394.003 185.21 399 179.587 399C173.965 399 169.411 394.003 169.411 387.834C169.411 381.665 173.971 376.668 179.587 376.668C185.204 376.668 189.764 381.665 189.764 387.834Z" stroke="white" stroke-miterlimit="10"/>
<path d="M216.988 371.138C216.988 364.969 221.548 359.972 227.164 359.972C232.781 359.972 237.341 364.969 237.341 371.138" stroke="white" stroke-miterlimit="10"/>
<path d="M135.746 199.609C135.746 193.44 140.307 188.443 145.923 188.443C151.539 188.443 156.1 193.44 156.1 199.609" stroke="white" stroke-miterlimit="10"/>
<path d="M28.6562 108.928C28.6562 102.759 33.1914 97.7621 38.7883 97.7621C44.3852 97.7621 48.9203 102.759 48.9203 108.928" stroke="white" stroke-miterlimit="10"/>
<path d="M285.232 127.217C279.609 127.217 275.055 122.241 275.055 116.1C275.055 109.96 279.609 104.984 285.232 104.984" stroke="white" stroke-miterlimit="10"/>
<path d="M40.1315 387.778C34.509 387.778 29.9547 382.802 29.9547 376.661C29.9547 370.521 34.509 365.545 40.1315 365.545" stroke="white" stroke-miterlimit="10"/>
<path d="M149.358 32.5991C143.735 32.5991 139.181 27.6233 139.181 21.4825C139.181 15.3416 143.735 10.3658 149.358 10.3658" stroke="white" stroke-miterlimit="10"/>
<path d="M45.2231 270.316C45.2231 276.485 40.6688 281.482 35.0463 281.482C29.4238 281.482 24.8695 276.485 24.8695 270.316C24.8695 264.147 29.4302 259.15 35.0463 259.15C40.6624 259.15 45.2231 264.147 45.2231 270.316Z" stroke="white" stroke-miterlimit="10"/>
<path d="M359.111 283.068C359.111 289.237 354.557 294.234 348.934 294.234C343.312 294.234 338.757 289.237 338.757 283.068C338.757 276.899 343.312 271.902 348.934 271.902C354.557 271.902 359.111 276.899 359.111 283.068Z" stroke="white" stroke-miterlimit="10"/>
<path d="M351.198 104.991H330.954V127.203H351.198V104.991Z" stroke="white" stroke-miterlimit="10"/>
<path d="M122.275 116.1H102.03V138.313H122.275V116.1Z" stroke="white" stroke-miterlimit="10"/>
<path d="M121.258 257.929H101.013V280.141H121.258V257.929Z" stroke="white" stroke-miterlimit="10"/>
<path d="M351.198 365.559H330.954V387.771H351.198V365.559Z" stroke="white" stroke-miterlimit="10"/>
<path d="M267.206 10.3728H246.962V32.5851H267.206V10.3728Z" stroke="white" stroke-miterlimit="10"/>
<path d="M217.87 236.257C213.45 236.257 214.212 227.66 208.57 227.66" stroke="white" stroke-miterlimit="10"/>
<path d="M236.465 236.257C232.045 236.257 232.806 227.66 227.164 227.66" stroke="white" stroke-miterlimit="10"/>
<path d="M217.87 236.257C222.29 236.257 221.529 227.66 227.171 227.66" stroke="white" stroke-miterlimit="10"/>
<path d="M236.465 236.257C240.885 236.257 240.124 227.66 245.765 227.66" stroke="white" stroke-miterlimit="10"/>
<path d="M270.846 396.431C266.426 396.431 267.187 387.827 261.546 387.827" stroke="white" stroke-miterlimit="10"/>
<path d="M289.441 396.431C285.021 396.431 285.782 387.834 280.14 387.834" stroke="white" stroke-miterlimit="10"/>
<path d="M270.846 396.431C275.266 396.431 274.505 387.834 280.146 387.834" stroke="white" stroke-miterlimit="10"/>
<path d="M289.441 396.431C293.861 396.431 293.099 387.827 298.741 387.834" stroke="white" stroke-miterlimit="10"/>
<path d="M296.202 165.508C291.782 165.508 292.543 156.911 286.901 156.911" stroke="white" stroke-miterlimit="10"/>
<path d="M314.796 165.508C310.376 165.508 311.137 156.911 305.496 156.911" stroke="white" stroke-miterlimit="10"/>
<path d="M296.202 165.508C300.622 165.508 299.86 156.911 305.502 156.911" stroke="white" stroke-miterlimit="10"/>
<path d="M314.796 165.508C319.216 165.508 318.455 156.911 324.097 156.911" stroke="white" stroke-miterlimit="10"/>
<path d="M37.6049 155.114C33.185 155.114 33.9461 146.517 28.3044 146.517" stroke="white" stroke-miterlimit="10"/>
<path d="M56.1994 155.114C51.7794 155.114 52.5406 146.517 46.8989 146.517" stroke="white" stroke-miterlimit="10"/>
<path d="M37.6049 155.114C42.0248 155.114 41.2636 146.517 46.9053 146.517" stroke="white" stroke-miterlimit="10"/>
<path d="M56.1995 155.114C60.6194 155.114 59.8582 146.517 65.4999 146.517" stroke="white" stroke-miterlimit="10"/>
<path d="M219.412 39.9821C219.412 44.8316 211.576 43.9965 211.576 50.1864" stroke="white" stroke-miterlimit="10"/>
<path d="M219.412 19.5805C219.412 24.43 211.576 23.5949 211.576 29.7848" stroke="white" stroke-miterlimit="10"/>
<path d="M219.412 39.9821C219.412 35.1326 211.576 35.9678 211.576 29.7778" stroke="white" stroke-miterlimit="10"/>
<path d="M219.412 19.5805C219.412 14.731 211.576 15.5662 211.576 9.37622" stroke="white" stroke-miterlimit="10"/>
<path d="M162.394 146.706C162.394 151.556 154.558 150.721 154.558 156.911" stroke="white" stroke-miterlimit="10"/>
<path d="M162.394 126.305C162.394 131.154 154.558 130.319 154.558 136.509" stroke="white" stroke-miterlimit="10"/>
<path d="M162.394 146.706C162.394 141.857 154.558 142.692 154.558 136.502" stroke="white" stroke-miterlimit="10"/>
<path d="M162.394 126.305C162.394 121.455 154.558 122.29 154.558 116.1" stroke="white" stroke-miterlimit="10"/>
<path d="M316.952 317.197C316.952 322.047 309.116 321.211 309.116 327.401" stroke="white" stroke-miterlimit="10"/>
<path d="M316.952 296.795C316.952 301.645 309.116 300.81 309.116 307" stroke="white" stroke-miterlimit="10"/>
<path d="M316.952 317.197C316.952 312.348 309.116 313.183 309.116 306.993" stroke="white" stroke-miterlimit="10"/>
<path d="M316.952 296.795C316.952 291.946 309.116 292.781 309.116 286.591" stroke="white" stroke-miterlimit="10"/>
<path d="M125.179 333.276C125.179 338.125 117.343 337.29 117.343 343.48" stroke="white" stroke-miterlimit="10"/>
<path d="M125.179 312.874C125.179 317.723 117.343 316.888 117.343 323.078" stroke="white" stroke-miterlimit="10"/>
<path d="M125.179 333.275C125.179 328.426 117.343 329.261 117.343 323.071" stroke="white" stroke-miterlimit="10"/>
<path d="M125.179 312.874C125.179 308.024 117.343 308.86 117.343 302.67" stroke="white" stroke-miterlimit="10"/>
<path d="M240.149 259.15H263.093" stroke="white" stroke-miterlimit="10"/>
<path d="M14.5968 186.408H37.541" stroke="white" stroke-miterlimit="10"/>
<path d="M241.864 69.395H264.808" stroke="white" stroke-miterlimit="10"/>
<path d="M332.303 12.5835H355.247" stroke="white" stroke-miterlimit="10"/>
<path d="M106.06 387.778H129.004" stroke="white" stroke-miterlimit="10"/>
<path d="M164.978 339.15L181.199 321.345" stroke="white" stroke-miterlimit="10"/>
<path d="M30.6775 30.3814L46.899 12.5835" stroke="white" stroke-miterlimit="10"/>
<path d="M343.779 212.859L360 195.061" stroke="white" stroke-miterlimit="10"/>
</g>
<path d="M208.896 309.372C207.022 310.663 204.547 310.046 203.37 307.989C202.186 305.933 202.755 303.217 204.623 301.926C206.497 300.634 208.973 301.252 210.15 303.308C211.327 305.365 210.764 308.081 208.896 309.372Z" stroke="white" stroke-width="5" stroke-linecap="round" stroke-linejoin="round"/>
<path d="M177.304 188.373C175.43 189.664 172.954 189.047 171.777 186.99C170.6 184.934 171.163 182.218 173.031 180.927C174.905 179.635 177.381 180.253 178.558 182.309C179.734 184.365 179.172 187.081 177.304 188.373Z" stroke="white" stroke-width="5" stroke-linecap="round" stroke-linejoin="round"/>
<path d="M32.8139 225.583C30.9398 226.874 28.4643 226.257 27.2874 224.2C26.1104 222.144 26.6733 219.428 28.5411 218.137C30.4152 216.845 32.8907 217.463 34.0676 219.519C35.2446 221.575 34.6817 224.291 32.8139 225.583Z" stroke="white" stroke-width="5" stroke-linecap="round" stroke-linejoin="round"/>
<path d="M73.892 87.1227C72.0179 88.414 69.5424 87.7964 68.3655 85.7401C67.1885 83.6838 67.7514 80.9678 69.6192 79.6765C71.4934 78.3852 73.9688 79.0028 75.1458 81.0591C76.3227 83.1154 75.7598 85.8314 73.892 87.1227Z" stroke="white" stroke-width="5" stroke-linecap="round" stroke-linejoin="round"/>
<path d="M294.43 84.94C292.556 86.2313 290.08 85.6138 288.903 83.5574C287.726 81.5011 288.289 78.7851 290.157 77.4938C292.031 76.2025 294.507 76.8201 295.683 78.8764C296.86 80.9327 296.298 83.6487 294.43 84.94Z" stroke="white" stroke-width="5" stroke-linecap="round" stroke-linejoin="round"/>
<path d="M351.07 241.654C349.196 242.946 346.721 242.328 345.544 240.272C344.367 238.215 344.93 235.499 346.798 234.208C348.672 232.917 351.147 233.534 352.324 235.591C353.501 237.647 352.938 240.363 351.07 241.654Z" stroke="white" stroke-width="5" stroke-linecap="round" stroke-linejoin="round"/>
<path d="M124.93 473.894L115.175 463.858" stroke="white" stroke-width="5" stroke-linecap="round" stroke-linejoin="round"/>
<path d="M115.476 474.231L124.629 463.521" stroke="white" stroke-width="5" stroke-linecap="round" stroke-linejoin="round"/>
<path d="M136.143 627.899L126.382 617.856" stroke="white" stroke-width="5" stroke-linecap="round" stroke-linejoin="round"/>
<path d="M126.689 628.229L135.836 617.526" stroke="white" stroke-width="5" stroke-linecap="round" stroke-linejoin="round"/>
<path d="M17.4304 713.941L7.67578 703.898" stroke="white" stroke-width="5" stroke-linecap="round" stroke-linejoin="round"/>
<path d="M7.97644 714.271L17.1234 703.568" stroke="white" stroke-width="5" stroke-linecap="round" stroke-linejoin="round"/>
<path d="M13.1704 459.24L3.41577 449.204" stroke="white" stroke-width="5" stroke-linecap="round" stroke-linejoin="round"/>
<path d="M3.71643 459.577L12.8634 448.874" stroke="white" stroke-width="5" stroke-linecap="round" stroke-linejoin="round"/>
<path d="M245.03 528.235L235.275 518.199" stroke="white" stroke-width="5" stroke-linecap="round" stroke-linejoin="round"/>
<path d="M235.576 528.572L244.729 517.869" stroke="white" stroke-width="5" stroke-linecap="round" stroke-linejoin="round"/>
<path d="M292.594 647.409L282.839 637.373" stroke="white" stroke-width="5" stroke-linecap="round" stroke-linejoin="round"/>
<path d="M283.14 647.746L292.293 637.044" stroke="white" stroke-width="5" stroke-linecap="round" stroke-linejoin="round"/>
<path d="M285.02 744.491L275.266 734.455" stroke="white" stroke-width="5" stroke-linecap="round" stroke-linejoin="round"/>
<path d="M275.567 744.828L284.713 734.125" stroke="white" stroke-width="5" stroke-linecap="round" stroke-linejoin="round"/>
<path d="M197.427 489.965L190.711 477.213L184.014 489.972L177.317 502.724L190.73 502.71L204.143 502.703L197.427 489.965Z" stroke="white" stroke-width="5" stroke-linecap="round" stroke-linejoin="round"/>
<path d="M175.219 645.767L168.502 633.022L161.805 645.774L155.108 658.526L168.522 658.519L181.935 658.512L175.219 645.767Z" stroke="white" stroke-width="5" stroke-linecap="round" stroke-linejoin="round"/>
<path d="M252.2 693.61L245.484 680.865L238.787 693.617L232.083 706.375L245.497 706.361L258.916 706.354L252.2 693.61Z" stroke="white" stroke-width="5" stroke-linecap="round" stroke-linejoin="round"/>
<path d="M296.477 595.756L299.944 581.53L286.984 585.355L274.025 589.173L283.517 599.574L293.01 609.982L296.477 595.756Z" stroke="white" stroke-width="5" stroke-linecap="round" stroke-linejoin="round"/>
<path d="M75.843 430.627L79.3099 416.402L66.357 420.226L53.3914 424.044L62.8901 434.445L72.3825 444.853L75.843 430.627Z" stroke="white" stroke-width="5" stroke-linecap="round" stroke-linejoin="round"/>
<path d="M66.6577 737.957L70.1182 723.731L57.1653 727.556L44.2061 731.374L53.6984 741.775L63.1908 752.183L66.6577 737.957Z" stroke="white" stroke-width="5" stroke-linecap="round" stroke-linejoin="round"/>
<path d="M310.069 446.516L321.685 439.147L310.063 431.799L298.434 424.444L298.447 439.161L298.453 453.885L310.069 446.516Z" stroke="white" stroke-width="5" stroke-linecap="round" stroke-linejoin="round"/>
<path d="M66.3571 593.581L77.9795 586.212L66.3507 578.864L54.7283 571.509L54.7411 586.233L54.7475 600.95L66.3571 593.581Z" stroke="white" stroke-width="5" stroke-linecap="round" stroke-linejoin="round"/>
<path d="M220.103 569.48C220.103 575.649 215.548 580.646 209.926 580.646C204.303 580.646 199.749 575.649 199.749 569.48C199.749 563.311 204.303 558.315 209.926 558.315C215.548 558.315 220.103 563.311 220.103 569.48V569.48Z" stroke="white" stroke-width="5" stroke-linecap="round" stroke-linejoin="round"/>
<path d="M168.675 444.853C168.675 451.022 164.121 456.019 158.498 456.019C152.876 456.019 148.321 451.022 148.321 444.853C148.321 438.684 152.882 433.687 158.498 433.687C164.114 433.687 168.675 438.684 168.675 444.853Z" stroke="white" stroke-width="5" stroke-linecap="round" stroke-linejoin="round"/>
<path d="M175.168 774.458C175.168 780.627 170.613 785.624 164.991 785.624C159.368 785.624 154.814 780.627 154.814 774.458C154.814 768.289 159.375 763.292 164.991 763.292C170.607 763.292 175.168 768.289 175.168 774.458Z" stroke="white" stroke-width="5" stroke-linecap="round" stroke-linejoin="round"/>
<path d="M202.391 757.762C202.391 751.593 206.952 746.596 212.568 746.596C218.184 746.596 222.744 751.593 222.744 757.762" stroke="white" stroke-width="5" stroke-linecap="round" stroke-linejoin="round"/>
<path d="M121.149 586.233C121.149 580.064 125.71 575.067 131.326 575.067C136.942 575.067 141.503 580.064 141.503 586.233" stroke="white" stroke-width="5" stroke-linecap="round" stroke-linejoin="round"/>
<path d="M14.0594 495.552C14.0594 489.383 18.5945 484.386 24.1915 484.386C29.7884 484.386 34.3235 489.383 34.3235 495.552" stroke="white" stroke-width="5" stroke-linecap="round" stroke-linejoin="round"/>
<path d="M270.635 513.841C265.012 513.841 260.458 508.865 260.458 502.724C260.458 496.583 265.012 491.608 270.635 491.608" stroke="white" stroke-width="5" stroke-linecap="round" stroke-linejoin="round"/>
<path d="M25.5347 774.402C19.9122 774.402 15.3579 769.426 15.3579 763.285C15.3579 757.144 19.9122 752.169 25.5347 752.169" stroke="white" stroke-width="5" stroke-linecap="round" stroke-linejoin="round"/>
<path d="M134.761 419.223C129.138 419.223 124.584 414.247 124.584 408.106C124.584 401.965 129.138 396.99 134.761 396.99" stroke="white" stroke-width="5" stroke-linecap="round" stroke-linejoin="round"/>
<path d="M30.6263 656.94C30.6263 663.109 26.072 668.106 20.4495 668.106C14.827 668.106 10.2727 663.109 10.2727 656.94C10.2727 650.771 14.8334 645.774 20.4495 645.774C26.0656 645.774 30.6263 650.771 30.6263 656.94V656.94Z" stroke="white" stroke-width="5" stroke-linecap="round" stroke-linejoin="round"/>
<path d="M344.514 669.699C344.514 675.868 339.96 680.865 334.337 680.865C328.715 680.865 324.161 675.868 324.161 669.699C324.161 663.53 328.715 658.533 334.337 658.533C339.96 658.533 344.514 663.53 344.514 669.699Z" stroke="white" stroke-width="5" stroke-linecap="round" stroke-linejoin="round"/>
<path d="M336.608 491.615H316.363V513.827H336.608V491.615Z" stroke="white" stroke-width="5" stroke-linecap="round" stroke-linejoin="round"/>
<path d="M107.678 502.724H87.4333V524.937H107.678V502.724Z" stroke="white" stroke-width="5" stroke-linecap="round" stroke-linejoin="round"/>
<path d="M106.668 644.553H86.4227V666.765H106.668V644.553Z" stroke="white" stroke-width="5" stroke-linecap="round" stroke-linejoin="round"/>
<path d="M336.608 752.183H316.363V774.395H336.608V752.183Z" stroke="white" stroke-width="5" stroke-linecap="round" stroke-linejoin="round"/>
<path d="M252.616 396.997H232.371V419.209H252.616V396.997Z" stroke="white" stroke-width="5" stroke-linecap="round" stroke-linejoin="round"/>
<path d="M203.274 622.881C198.854 622.881 199.615 614.284 193.973 614.284" stroke="white" stroke-width="5" stroke-linecap="round" stroke-linejoin="round"/>
<path d="M221.868 622.881C217.448 622.881 218.209 614.284 212.568 614.284" stroke="white" stroke-width="5" stroke-linecap="round" stroke-linejoin="round"/>
<path d="M203.274 622.881C207.694 622.881 206.932 614.284 212.574 614.284" stroke="white" stroke-width="5" stroke-linecap="round" stroke-linejoin="round"/>
<path d="M221.868 622.881C226.288 622.881 225.527 614.284 231.169 614.284" stroke="white" stroke-width="5" stroke-linecap="round" stroke-linejoin="round"/>
<path d="M256.249 783.055C251.829 783.055 252.59 774.451 246.949 774.451" stroke="white" stroke-width="5" stroke-linecap="round" stroke-linejoin="round"/>
<path d="M274.844 783.055C270.424 783.055 271.185 774.458 265.543 774.458" stroke="white" stroke-width="5" stroke-linecap="round" stroke-linejoin="round"/>
<path d="M256.249 783.055C260.669 783.055 259.908 774.458 265.55 774.458" stroke="white" stroke-width="5" stroke-linecap="round" stroke-linejoin="round"/>
<path d="M274.844 783.055C279.264 783.055 278.503 774.451 284.144 774.458" stroke="white" stroke-width="5" stroke-linecap="round" stroke-linejoin="round"/>
<path d="M281.605 552.132C277.185 552.132 277.946 543.534 272.304 543.534" stroke="white" stroke-width="5" stroke-linecap="round" stroke-linejoin="round"/>
<path d="M300.206 552.132C295.786 552.132 296.547 543.534 290.905 543.534" stroke="white" stroke-width="5" stroke-linecap="round" stroke-linejoin="round"/>
<path d="M281.605 552.132C286.025 552.132 285.264 543.534 290.905 543.534" stroke="white" stroke-width="5" stroke-linecap="round" stroke-linejoin="round"/>
<path d="M300.206 552.132C304.626 552.132 303.865 543.534 309.506 543.534" stroke="white" stroke-width="5" stroke-linecap="round" stroke-linejoin="round"/>
<path d="M23.0081 541.738C18.5882 541.738 19.3493 533.141 13.7076 533.141" stroke="white" stroke-width="5" stroke-linecap="round" stroke-linejoin="round"/>
<path d="M41.6026 541.738C37.1826 541.738 37.9438 533.141 32.3021 533.141" stroke="white" stroke-width="5" stroke-linecap="round" stroke-linejoin="round"/>
<path d="M23.0081 541.738C27.428 541.738 26.6668 533.141 32.3085 533.141" stroke="white" stroke-width="5" stroke-linecap="round" stroke-linejoin="round"/>
<path d="M41.6027 541.738C46.0226 541.738 45.2614 533.141 50.9031 533.141" stroke="white" stroke-width="5" stroke-linecap="round" stroke-linejoin="round"/>
<path d="M204.815 426.606C204.815 431.455 196.979 430.62 196.979 436.81" stroke="white" stroke-width="5" stroke-linecap="round" stroke-linejoin="round"/>
<path d="M204.815 406.204C204.815 411.054 196.979 410.219 196.979 416.409" stroke="white" stroke-width="5" stroke-linecap="round" stroke-linejoin="round"/>
<path d="M204.815 426.606C204.815 421.756 196.979 422.592 196.979 416.402" stroke="white" stroke-width="5" stroke-linecap="round" stroke-linejoin="round"/>
<path d="M204.815 406.204C204.815 401.355 196.979 402.19 196.979 396" stroke="white" stroke-width="5" stroke-linecap="round" stroke-linejoin="round"/>
<path d="M147.797 533.33C147.797 538.18 139.961 537.344 139.961 543.534" stroke="white" stroke-width="5" stroke-linecap="round" stroke-linejoin="round"/>
<path d="M147.797 512.929C147.797 517.778 139.961 516.943 139.961 523.133" stroke="white" stroke-width="5" stroke-linecap="round" stroke-linejoin="round"/>
<path d="M147.797 533.33C147.797 528.481 139.961 529.316 139.961 523.126" stroke="white" stroke-width="5" stroke-linecap="round" stroke-linejoin="round"/>
<path d="M147.797 512.929C147.797 508.079 139.961 508.914 139.961 502.724" stroke="white" stroke-width="5" stroke-linecap="round" stroke-linejoin="round"/>
<path d="M302.355 703.821C302.355 708.67 294.519 707.835 294.519 714.025" stroke="white" stroke-width="5" stroke-linecap="round" stroke-linejoin="round"/>
<path d="M302.355 683.419C302.355 688.269 294.519 687.434 294.519 693.624" stroke="white" stroke-width="5" stroke-linecap="round" stroke-linejoin="round"/>
<path d="M302.355 703.821C302.355 698.971 294.519 699.806 294.519 693.617" stroke="white" stroke-width="5" stroke-linecap="round" stroke-linejoin="round"/>
<path d="M302.355 683.419C302.355 678.57 294.519 679.405 294.519 673.215" stroke="white" stroke-width="5" stroke-linecap="round" stroke-linejoin="round"/>
<path d="M110.589 719.899C110.589 724.749 102.753 723.914 102.753 730.104" stroke="white" stroke-width="5" stroke-linecap="round" stroke-linejoin="round"/>
<path d="M110.589 699.498C110.589 704.347 102.753 703.512 102.753 709.702" stroke="white" stroke-width="5" stroke-linecap="round" stroke-linejoin="round"/>
<path d="M110.589 719.899C110.589 715.05 102.753 715.885 102.753 709.695" stroke="white" stroke-width="5" stroke-linecap="round" stroke-linejoin="round"/>
<path d="M110.589 699.498C110.589 694.648 102.753 695.483 102.753 689.293" stroke="white" stroke-width="5" stroke-linecap="round" stroke-linejoin="round"/>
<path d="M225.559 645.774H248.503" stroke="white" stroke-width="5" stroke-linecap="round" stroke-linejoin="round"/>
<path d="M0 573.032H22.9442" stroke="white" stroke-width="5" stroke-linecap="round" stroke-linejoin="round"/>
<path d="M227.273 456.019H250.217" stroke="white" stroke-width="5" stroke-linecap="round" stroke-linejoin="round"/>
<path d="M317.713 399.207H340.657" stroke="white" stroke-width="5" stroke-linecap="round" stroke-linejoin="round"/>
<path d="M91.4696 774.402H114.414" stroke="white" stroke-width="5" stroke-linecap="round" stroke-linejoin="round"/>
<path d="M150.381 725.773L166.603 707.969" stroke="white" stroke-width="5" stroke-linecap="round" stroke-linejoin="round"/>
<path d="M16.0807 417.005L32.3085 399.207" stroke="white" stroke-width="5" stroke-linecap="round" stroke-linejoin="round"/>
<path d="M329.182 599.483L345.403 581.685" stroke="white" stroke-width="5" stroke-linecap="round" stroke-linejoin="round"/>
<path d="M208.896 705.372C207.022 706.663 204.547 706.046 203.37 703.989C202.186 701.933 202.755 699.217 204.623 697.926C206.497 696.634 208.973 697.252 210.15 699.308C211.327 701.365 210.764 704.081 208.896 705.372Z" stroke="white" stroke-width="5" stroke-linecap="round" stroke-linejoin="round"/>
<path d="M177.304 584.373C175.43 585.664 172.954 585.047 171.777 582.99C170.6 580.934 171.163 578.218 173.031 576.927C174.905 575.635 177.381 576.253 178.558 578.309C179.734 580.365 179.172 583.081 177.304 584.373Z" stroke="white" stroke-width="5" stroke-linecap="round" stroke-linejoin="round"/>
<path d="M32.8139 621.583C30.9398 622.874 28.4643 622.257 27.2874 620.2C26.1104 618.144 26.6733 615.428 28.5411 614.137C30.4152 612.845 32.8907 613.463 34.0676 615.519C35.2446 617.575 34.6817 620.291 32.8139 621.583Z" stroke="white" stroke-width="5" stroke-linecap="round" stroke-linejoin="round"/>
<path d="M73.892 483.123C72.0179 484.414 69.5424 483.796 68.3655 481.74C67.1885 479.684 67.7514 476.968 69.6192 475.676C71.4934 474.385 73.9688 475.003 75.1458 477.059C76.3227 479.115 75.7598 481.831 73.892 483.123Z" stroke="white" stroke-width="5" stroke-linecap="round" stroke-linejoin="round"/>
<path d="M294.43 480.94C292.556 482.231 290.08 481.614 288.903 479.557C287.726 477.501 288.289 474.785 290.157 473.494C292.031 472.203 294.507 472.82 295.683 474.876C296.86 476.933 296.298 479.649 294.43 480.94Z" stroke="white" stroke-width="5" stroke-linecap="round" stroke-linejoin="round"/>
<path d="M351.07 637.654C349.196 638.946 346.721 638.328 345.544 636.272C344.367 634.215 344.93 631.499 346.798 630.208C348.672 628.917 351.147 629.534 352.324 631.591C353.501 633.647 352.938 636.363 351.07 637.654Z" stroke="white" stroke-width="5" stroke-linecap="round" stroke-linejoin="round"/>
</g>
</svg>
